<mxfile host="65bd71144e">
    <diagram id="C5RBs43oDa-KdzZeNtuy" name="クラス図">
        <mxGraphModel dx="459" dy="467" grid="1" gridSize="10" guides="1" tooltips="1" connect="1" arrows="1" fold="1" page="1" pageScale="1" pageWidth="827" pageHeight="1169" math="0" shadow="0">
            <root>
                <mxCell id="WIyWlLk6GJQsqaUBKTNV-0"/>
                <mxCell id="WIyWlLk6GJQsqaUBKTNV-1" parent="WIyWlLk6GJQsqaUBKTNV-0"/>
                <mxCell id="mkgSa8CzClqnbipAFmf9-63" value="" style="rounded=1;whiteSpace=wrap;html=1;fillColor=none;strokeColor=#66B2FF;strokeWidth=3;" parent="WIyWlLk6GJQsqaUBKTNV-1" vertex="1">
                    <mxGeometry x="20" y="1238" width="930" height="342" as="geometry"/>
                </mxCell>
                <mxCell id="mkgSa8CzClqnbipAFmf9-60" value="" style="rounded=1;whiteSpace=wrap;html=1;fillColor=none;strokeColor=#66B2FF;strokeWidth=3;" parent="WIyWlLk6GJQsqaUBKTNV-1" vertex="1">
                    <mxGeometry x="20" y="854" width="940" height="300" as="geometry"/>
                </mxCell>
                <mxCell id="mkgSa8CzClqnbipAFmf9-58" value="" style="rounded=1;whiteSpace=wrap;html=1;fillColor=none;strokeColor=#66B2FF;strokeWidth=3;fontStyle=1;arcSize=9;" parent="WIyWlLk6GJQsqaUBKTNV-1" vertex="1">
                    <mxGeometry x="20" y="210" width="1310" height="560" as="geometry"/>
                </mxCell>
                <mxCell id="zkfFHV4jXpPFQw0GAbJ--0" value="DiaryModel" style="swimlane;fontStyle=2;align=center;verticalAlign=top;childLayout=stackLayout;horizontal=1;startSize=26;horizontalStack=0;resizeParent=1;resizeLast=0;collapsible=1;marginBottom=0;rounded=0;shadow=0;strokeWidth=1;" parent="WIyWlLk6GJQsqaUBKTNV-1" vertex="1">
                    <mxGeometry x="375" y="1313" width="230" height="190" as="geometry">
                        <mxRectangle x="230" y="140" width="160" height="26" as="alternateBounds"/>
                    </mxGeometry>
                </mxCell>
                <mxCell id="mkgSa8CzClqnbipAFmf9-6" value="constData : データフレーム（Pandas）" style="text;align=left;verticalAlign=top;spacingLeft=4;spacingRight=4;overflow=hidden;rotatable=0;points=[[0,0.5],[1,0.5]];portConstraint=eastwest;" parent="zkfFHV4jXpPFQw0GAbJ--0" vertex="1">
                    <mxGeometry y="26" width="230" height="26" as="geometry"/>
                </mxCell>
                <mxCell id="zkfFHV4jXpPFQw0GAbJ--1" value="read_state : 読込み状態 " style="text;align=left;verticalAlign=top;spacingLeft=4;spacingRight=4;overflow=hidden;rotatable=0;points=[[0,0.5],[1,0.5]];portConstraint=eastwest;" parent="zkfFHV4jXpPFQw0GAbJ--0" vertex="1">
                    <mxGeometry y="52" width="230" height="26" as="geometry"/>
                </mxCell>
                <mxCell id="rG459nys55TH0IPj071D-0" value="file_path : ファイルパス" style="text;align=left;verticalAlign=top;spacingLeft=4;spacingRight=4;overflow=hidden;rotatable=0;points=[[0,0.5],[1,0.5]];portConstraint=eastwest;" parent="zkfFHV4jXpPFQw0GAbJ--0" vertex="1">
                    <mxGeometry y="78" width="230" height="26" as="geometry"/>
                </mxCell>
                <mxCell id="zkfFHV4jXpPFQw0GAbJ--4" value="" style="line;html=1;strokeWidth=1;align=left;verticalAlign=middle;spacingTop=-1;spacingLeft=3;spacingRight=3;rotatable=0;labelPosition=right;points=[];portConstraint=eastwest;" parent="zkfFHV4jXpPFQw0GAbJ--0" vertex="1">
                    <mxGeometry y="104" width="230" height="8" as="geometry"/>
                </mxCell>
                <mxCell id="mkgSa8CzClqnbipAFmf9-3" value="__init__()  戻り値：なし" style="text;align=left;verticalAlign=top;spacingLeft=4;spacingRight=4;overflow=hidden;rotatable=0;points=[[0,0.5],[1,0.5]];portConstraint=eastwest;" parent="zkfFHV4jXpPFQw0GAbJ--0" vertex="1">
                    <mxGeometry y="112" width="230" height="26" as="geometry"/>
                </mxCell>
                <mxCell id="mkgSa8CzClqnbipAFmf9-5" value="get_all()  戻り値：一覧データ" style="text;align=left;verticalAlign=top;spacingLeft=4;spacingRight=4;overflow=hidden;rotatable=0;points=[[0,0.5],[1,0.5]];portConstraint=eastwest;" parent="zkfFHV4jXpPFQw0GAbJ--0" vertex="1">
                    <mxGeometry y="138" width="230" height="26" as="geometry"/>
                </mxCell>
                <mxCell id="mkgSa8CzClqnbipAFmf9-4" value="get_one()  戻り値：レコードデータ" style="text;align=left;verticalAlign=top;spacingLeft=4;spacingRight=4;overflow=hidden;rotatable=0;points=[[0,0.5],[1,0.5]];portConstraint=eastwest;" parent="zkfFHV4jXpPFQw0GAbJ--0" vertex="1">
                    <mxGeometry y="164" width="230" height="26" as="geometry"/>
                </mxCell>
                <mxCell id="PYAkdRfbWLDcyNQkEUJV-3" value="" style="edgeStyle=orthogonalEdgeStyle;rounded=0;orthogonalLoop=1;jettySize=auto;html=1;" parent="WIyWlLk6GJQsqaUBKTNV-1" source="mkgSa8CzClqnbipAFmf9-9" target="zkfFHV4jXpPFQw0GAbJ--0" edge="1">
                    <mxGeometry relative="1" as="geometry"/>
                </mxCell>
                <mxCell id="PYAkdRfbWLDcyNQkEUJV-25" value="使用" style="edgeLabel;html=1;align=center;verticalAlign=middle;resizable=0;points=[];" parent="PYAkdRfbWLDcyNQkEUJV-3" vertex="1" connectable="0">
                    <mxGeometry x="0.1105" y="-3" relative="1" as="geometry">
                        <mxPoint x="-17" y="18" as="offset"/>
                    </mxGeometry>
                </mxCell>
                <mxCell id="mkgSa8CzClqnbipAFmf9-9" value="ConstController" style="swimlane;fontStyle=0;align=center;verticalAlign=top;childLayout=stackLayout;horizontal=1;startSize=26;horizontalStack=0;resizeParent=1;resizeLast=0;collapsible=1;marginBottom=0;rounded=0;shadow=0;strokeWidth=1;" parent="WIyWlLk6GJQsqaUBKTNV-1" vertex="1">
                    <mxGeometry x="380" y="940" width="220" height="146" as="geometry">
                        <mxRectangle x="380" y="790" width="160" height="26" as="alternateBounds"/>
                    </mxGeometry>
                </mxCell>
                <mxCell id="PYAkdRfbWLDcyNQkEUJV-1" value="diary_model: DiaryModelクラス" style="text;align=left;verticalAlign=top;spacingLeft=4;spacingRight=4;overflow=hidden;rotatable=0;points=[[0,0.5],[1,0.5]];portConstraint=eastwest;" parent="mkgSa8CzClqnbipAFmf9-9" vertex="1">
                    <mxGeometry y="26" width="220" height="26" as="geometry"/>
                </mxCell>
                <mxCell id="mkgSa8CzClqnbipAFmf9-12" value="" style="line;html=1;strokeWidth=1;align=left;verticalAlign=middle;spacingTop=-1;spacingLeft=3;spacingRight=3;rotatable=0;labelPosition=right;points=[];portConstraint=eastwest;" parent="mkgSa8CzClqnbipAFmf9-9" vertex="1">
                    <mxGeometry y="52" width="220" height="8" as="geometry"/>
                </mxCell>
                <mxCell id="bbpbxEwhkKM31EhVeRec-4" value="__init__()  : 戻り値なし" style="text;align=left;verticalAlign=top;spacingLeft=4;spacingRight=4;overflow=hidden;rotatable=0;points=[[0,0.5],[1,0.5]];portConstraint=eastwest;fontStyle=0" parent="mkgSa8CzClqnbipAFmf9-9" vertex="1">
                    <mxGeometry y="60" width="220" height="22" as="geometry"/>
                </mxCell>
                <mxCell id="mkgSa8CzClqnbipAFmf9-13" value="get_list_data()  : 生成データ(Str型)" style="text;align=left;verticalAlign=top;spacingLeft=4;spacingRight=4;overflow=hidden;rotatable=0;points=[[0,0.5],[1,0.5]];portConstraint=eastwest;fontStyle=0" parent="mkgSa8CzClqnbipAFmf9-9" vertex="1">
                    <mxGeometry y="82" width="220" height="28" as="geometry"/>
                </mxCell>
                <mxCell id="mkgSa8CzClqnbipAFmf9-14" value="get_one() : 生成データ(Str型)" style="text;align=left;verticalAlign=top;spacingLeft=4;spacingRight=4;overflow=hidden;rotatable=0;points=[[0,0.5],[1,0.5]];portConstraint=eastwest;" parent="mkgSa8CzClqnbipAFmf9-9" vertex="1">
                    <mxGeometry y="110" width="220" height="28" as="geometry"/>
                </mxCell>
                <mxCell id="mkgSa8CzClqnbipAFmf9-41" style="edgeStyle=orthogonalEdgeStyle;rounded=0;orthogonalLoop=1;jettySize=auto;html=1;endArrow=diamond;endFill=0;strokeWidth=1;entryX=0.5;entryY=1;entryDx=0;entryDy=0;" parent="WIyWlLk6GJQsqaUBKTNV-1" source="mkgSa8CzClqnbipAFmf9-16" target="mkgSa8CzClqnbipAFmf9-22" edge="1">
                    <mxGeometry relative="1" as="geometry">
                        <mxPoint x="499" y="430" as="targetPoint"/>
                    </mxGeometry>
                </mxCell>
                <mxCell id="mkgSa8CzClqnbipAFmf9-42" value="管理" style="edgeLabel;html=1;align=center;verticalAlign=middle;resizable=0;points=[];" parent="mkgSa8CzClqnbipAFmf9-41" vertex="1" connectable="0">
                    <mxGeometry x="-0.2204" y="4" relative="1" as="geometry">
                        <mxPoint x="-15" y="-34" as="offset"/>
                    </mxGeometry>
                </mxCell>
                <mxCell id="mkgSa8CzClqnbipAFmf9-48" style="rounded=0;orthogonalLoop=1;jettySize=auto;html=1;entryX=0.25;entryY=0;entryDx=0;entryDy=0;" parent="WIyWlLk6GJQsqaUBKTNV-1" source="mkgSa8CzClqnbipAFmf9-16" target="mkgSa8CzClqnbipAFmf9-9" edge="1">
                    <mxGeometry relative="1" as="geometry">
                        <mxPoint x="440" y="850" as="targetPoint"/>
                    </mxGeometry>
                </mxCell>
                <mxCell id="gpzuzgEzm0yG7Bt-qaei-22" value="使用" style="edgeLabel;html=1;align=center;verticalAlign=middle;resizable=0;points=[];" parent="mkgSa8CzClqnbipAFmf9-48" vertex="1" connectable="0">
                    <mxGeometry x="0.6627" y="2" relative="1" as="geometry">
                        <mxPoint x="13" y="8" as="offset"/>
                    </mxGeometry>
                </mxCell>
                <mxCell id="mkgSa8CzClqnbipAFmf9-16" value="Page1" style="swimlane;fontStyle=0;align=center;verticalAlign=top;childLayout=stackLayout;horizontal=1;startSize=26;horizontalStack=0;resizeParent=1;resizeLast=0;collapsible=1;marginBottom=0;rounded=0;shadow=0;strokeWidth=1;" parent="WIyWlLk6GJQsqaUBKTNV-1" vertex="1">
                    <mxGeometry x="391" y="583.95" width="220" height="136.05" as="geometry">
                        <mxRectangle x="130" y="380" width="160" height="26" as="alternateBounds"/>
                    </mxGeometry>
                </mxCell>
                <mxCell id="mkgSa8CzClqnbipAFmf9-17" value="diary_controller: DiaryControllerクラス" style="text;align=left;verticalAlign=top;spacingLeft=4;spacingRight=4;overflow=hidden;rotatable=0;points=[[0,0.5],[1,0.5]];portConstraint=eastwest;" parent="mkgSa8CzClqnbipAFmf9-16" vertex="1">
                    <mxGeometry y="26" width="220" height="26" as="geometry"/>
                </mxCell>
                <mxCell id="mkgSa8CzClqnbipAFmf9-18" value="" style="line;html=1;strokeWidth=1;align=left;verticalAlign=middle;spacingTop=-1;spacingLeft=3;spacingRight=3;rotatable=0;labelPosition=right;points=[];portConstraint=eastwest;" parent="mkgSa8CzClqnbipAFmf9-16" vertex="1">
                    <mxGeometry y="52" width="220" height="8" as="geometry"/>
                </mxCell>
                <mxCell id="mkgSa8CzClqnbipAFmf9-19" value="__init__()  : 戻り値なし" style="text;align=left;verticalAlign=top;spacingLeft=4;spacingRight=4;overflow=hidden;rotatable=0;points=[[0,0.5],[1,0.5]];portConstraint=eastwest;fontStyle=0" parent="mkgSa8CzClqnbipAFmf9-16" vertex="1">
                    <mxGeometry y="60" width="220" height="22" as="geometry"/>
                </mxCell>
                <mxCell id="mkgSa8CzClqnbipAFmf9-65" value="__build_ui()  : 戻り値なし" style="text;align=left;verticalAlign=top;spacingLeft=4;spacingRight=4;overflow=hidden;rotatable=0;points=[[0,0.5],[1,0.5]];portConstraint=eastwest;fontStyle=0" parent="mkgSa8CzClqnbipAFmf9-16" vertex="1">
                    <mxGeometry y="82" width="220" height="22" as="geometry"/>
                </mxCell>
                <mxCell id="bbpbxEwhkKM31EhVeRec-0" value="__msg_output()  : 戻り値なし" style="text;align=left;verticalAlign=top;spacingLeft=4;spacingRight=4;overflow=hidden;rotatable=0;points=[[0,0.5],[1,0.5]];portConstraint=eastwest;fontStyle=0" parent="mkgSa8CzClqnbipAFmf9-16" vertex="1">
                    <mxGeometry y="104" width="220" height="22" as="geometry"/>
                </mxCell>
                <mxCell id="mkgSa8CzClqnbipAFmf9-46" style="edgeStyle=orthogonalEdgeStyle;rounded=0;orthogonalLoop=1;jettySize=auto;html=1;entryX=0;entryY=0.5;entryDx=0;entryDy=0;exitX=0.004;exitY=-0.305;exitDx=0;exitDy=0;exitPerimeter=0;" parent="WIyWlLk6GJQsqaUBKTNV-1" source="mkgSa8CzClqnbipAFmf9-25" target="mkgSa8CzClqnbipAFmf9-13" edge="1">
                    <mxGeometry relative="1" as="geometry">
                        <Array as="points">
                            <mxPoint x="330" y="339"/>
                            <mxPoint x="330" y="1036"/>
                        </Array>
                        <mxPoint x="395" y="357.95000000000005" as="sourcePoint"/>
                    </mxGeometry>
                </mxCell>
                <mxCell id="mkgSa8CzClqnbipAFmf9-55" value="使用" style="edgeLabel;html=1;align=center;verticalAlign=middle;resizable=0;points=[];" parent="mkgSa8CzClqnbipAFmf9-46" vertex="1" connectable="0">
                    <mxGeometry x="0.8452" y="-3" relative="1" as="geometry">
                        <mxPoint x="23" y="-10" as="offset"/>
                    </mxGeometry>
                </mxCell>
                <mxCell id="mkgSa8CzClqnbipAFmf9-22" value="MainWindow" style="swimlane;fontStyle=0;align=center;verticalAlign=top;childLayout=stackLayout;horizontal=1;startSize=26;horizontalStack=0;resizeParent=1;resizeLast=0;collapsible=1;marginBottom=0;rounded=0;shadow=0;strokeWidth=1;" parent="WIyWlLk6GJQsqaUBKTNV-1" vertex="1">
                    <mxGeometry x="378" y="285.95" width="246" height="107.05" as="geometry">
                        <mxRectangle x="130" y="380" width="160" height="26" as="alternateBounds"/>
                    </mxGeometry>
                </mxCell>
                <mxCell id="mkgSa8CzClqnbipAFmf9-23" value="title: ウィンドウのキャプション（Str型）" style="text;align=left;verticalAlign=top;spacingLeft=4;spacingRight=4;overflow=hidden;rotatable=0;points=[[0,0.5],[1,0.5]];portConstraint=eastwest;" parent="mkgSa8CzClqnbipAFmf9-22" vertex="1">
                    <mxGeometry y="26" width="246" height="26" as="geometry"/>
                </mxCell>
                <mxCell id="mkgSa8CzClqnbipAFmf9-24" value="" style="line;html=1;strokeWidth=1;align=left;verticalAlign=middle;spacingTop=-1;spacingLeft=3;spacingRight=3;rotatable=0;labelPosition=right;points=[];portConstraint=eastwest;" parent="mkgSa8CzClqnbipAFmf9-22" vertex="1">
                    <mxGeometry y="52" width="246" height="8" as="geometry"/>
                </mxCell>
                <mxCell id="mkgSa8CzClqnbipAFmf9-25" value="__init__()  : 戻り値なし" style="text;align=left;verticalAlign=top;spacingLeft=4;spacingRight=4;overflow=hidden;rotatable=0;points=[[0,0.5],[1,0.5]];portConstraint=eastwest;fontStyle=0" parent="mkgSa8CzClqnbipAFmf9-22" vertex="1">
                    <mxGeometry y="60" width="246" height="22" as="geometry"/>
                </mxCell>
                <mxCell id="mkgSa8CzClqnbipAFmf9-49" style="rounded=0;orthogonalLoop=1;jettySize=auto;html=1;entryX=0.7;entryY=0.009;entryDx=0;entryDy=0;entryPerimeter=0;exitX=0.25;exitY=1;exitDx=0;exitDy=0;" parent="WIyWlLk6GJQsqaUBKTNV-1" source="gpzuzgEzm0yG7Bt-qaei-26" target="mkgSa8CzClqnbipAFmf9-9" edge="1">
                    <mxGeometry relative="1" as="geometry">
                        <mxPoint x="737.5448711248614" y="729.9999999999998" as="sourcePoint"/>
                    </mxGeometry>
                </mxCell>
                <mxCell id="mkgSa8CzClqnbipAFmf9-51" value="使用" style="edgeLabel;html=1;align=center;verticalAlign=middle;resizable=0;points=[];" parent="mkgSa8CzClqnbipAFmf9-49" vertex="1" connectable="0">
                    <mxGeometry x="0.002" y="-3" relative="1" as="geometry">
                        <mxPoint x="-44" y="68" as="offset"/>
                    </mxGeometry>
                </mxCell>
                <mxCell id="mkgSa8CzClqnbipAFmf9-59" value="&lt;font style=&quot;font-size: 15px;&quot;&gt;View（見た目）&lt;/font&gt;" style="text;html=1;align=center;verticalAlign=middle;whiteSpace=wrap;rounded=0;" parent="WIyWlLk6GJQsqaUBKTNV-1" vertex="1">
                    <mxGeometry x="80" y="180" width="130" height="30" as="geometry"/>
                </mxCell>
                <mxCell id="mkgSa8CzClqnbipAFmf9-61" value="&lt;font style=&quot;font-size: 15px;&quot;&gt;Model(データ保持)&lt;/font&gt;" style="text;html=1;align=center;verticalAlign=middle;whiteSpace=wrap;rounded=0;" parent="WIyWlLk6GJQsqaUBKTNV-1" vertex="1">
                    <mxGeometry x="70" y="1203" width="210" height="30" as="geometry"/>
                </mxCell>
                <mxCell id="mkgSa8CzClqnbipAFmf9-64" value="&lt;font style=&quot;font-size: 15px;&quot;&gt;Controller(ビジネスロジック)&lt;/font&gt;" style="text;html=1;align=center;verticalAlign=middle;whiteSpace=wrap;rounded=0;" parent="WIyWlLk6GJQsqaUBKTNV-1" vertex="1">
                    <mxGeometry x="80" y="824" width="210" height="30" as="geometry"/>
                </mxCell>
                <mxCell id="PYAkdRfbWLDcyNQkEUJV-9" style="rounded=0;orthogonalLoop=1;jettySize=auto;html=1;endArrow=block;endFill=0;exitX=0.5;exitY=0;exitDx=0;exitDy=0;edgeStyle=orthogonalEdgeStyle;entryX=0.5;entryY=0;entryDx=0;entryDy=0;" parent="WIyWlLk6GJQsqaUBKTNV-1" source="PYAkdRfbWLDcyNQkEUJV-4" target="mkgSa8CzClqnbipAFmf9-22" edge="1">
                    <mxGeometry relative="1" as="geometry">
                        <Array as="points">
                            <mxPoint x="185" y="250"/>
                            <mxPoint x="501" y="250"/>
                        </Array>
                    </mxGeometry>
                </mxCell>
                <mxCell id="PYAkdRfbWLDcyNQkEUJV-11" value="継承" style="edgeLabel;html=1;align=center;verticalAlign=middle;resizable=0;points=[];" parent="PYAkdRfbWLDcyNQkEUJV-9" vertex="1" connectable="0">
                    <mxGeometry x="-0.076" y="-1" relative="1" as="geometry">
                        <mxPoint x="143" y="-17" as="offset"/>
                    </mxGeometry>
                </mxCell>
                <mxCell id="PYAkdRfbWLDcyNQkEUJV-4" value="BaseWindow（抽象クラス）" style="swimlane;fontStyle=0;align=center;verticalAlign=top;childLayout=stackLayout;horizontal=1;startSize=26;horizontalStack=0;resizeParent=1;resizeLast=0;collapsible=1;marginBottom=0;rounded=0;shadow=0;strokeWidth=1;" parent="WIyWlLk6GJQsqaUBKTNV-1" vertex="1">
                    <mxGeometry x="60" y="290" width="250" height="258" as="geometry">
                        <mxRectangle x="130" y="380" width="160" height="26" as="alternateBounds"/>
                    </mxGeometry>
                </mxCell>
                <mxCell id="gpzuzgEzm0yG7Bt-qaei-0" value="theme  : 背景テーマ(str型)" style="text;align=left;verticalAlign=top;spacingLeft=4;spacingRight=4;overflow=hidden;rotatable=0;points=[[0,0.5],[1,0.5]];portConstraint=eastwest;" parent="PYAkdRfbWLDcyNQkEUJV-4" vertex="1">
                    <mxGeometry y="26" width="250" height="28" as="geometry"/>
                </mxCell>
                <mxCell id="gpzuzgEzm0yG7Bt-qaei-1" value="style : スタイルクラス" style="text;align=left;verticalAlign=top;spacingLeft=4;spacingRight=4;overflow=hidden;rotatable=0;points=[[0,0.5],[1,0.5]];portConstraint=eastwest;" parent="PYAkdRfbWLDcyNQkEUJV-4" vertex="1">
                    <mxGeometry y="54" width="250" height="28" as="geometry"/>
                </mxCell>
                <mxCell id="gpzuzgEzm0yG7Bt-qaei-2" value="controllers : コントローラクラス群（辞書型）" style="text;align=left;verticalAlign=top;spacingLeft=4;spacingRight=4;overflow=hidden;rotatable=0;points=[[0,0.5],[1,0.5]];portConstraint=eastwest;" parent="PYAkdRfbWLDcyNQkEUJV-4" vertex="1">
                    <mxGeometry y="82" width="250" height="28" as="geometry"/>
                </mxCell>
                <mxCell id="gpzuzgEzm0yG7Bt-qaei-3" value="pages : ページクラス群（辞書型）" style="text;align=left;verticalAlign=top;spacingLeft=4;spacingRight=4;overflow=hidden;rotatable=0;points=[[0,0.5],[1,0.5]];portConstraint=eastwest;" parent="PYAkdRfbWLDcyNQkEUJV-4" vertex="1">
                    <mxGeometry y="110" width="250" height="28" as="geometry"/>
                </mxCell>
                <mxCell id="PYAkdRfbWLDcyNQkEUJV-6" value="" style="line;html=1;strokeWidth=1;align=left;verticalAlign=middle;spacingTop=-1;spacingLeft=3;spacingRight=3;rotatable=0;labelPosition=right;points=[];portConstraint=eastwest;" parent="PYAkdRfbWLDcyNQkEUJV-4" vertex="1">
                    <mxGeometry y="138" width="250" height="8" as="geometry"/>
                </mxCell>
                <mxCell id="1" value="__init__()  : 戻り値なし" style="text;align=left;verticalAlign=top;spacingLeft=4;spacingRight=4;overflow=hidden;rotatable=0;points=[[0,0.5],[1,0.5]];portConstraint=eastwest;" vertex="1" parent="PYAkdRfbWLDcyNQkEUJV-4">
                    <mxGeometry y="146" width="250" height="28" as="geometry"/>
                </mxCell>
                <mxCell id="PYAkdRfbWLDcyNQkEUJV-8" value="show_page()  : 戻り値なし" style="text;align=left;verticalAlign=top;spacingLeft=4;spacingRight=4;overflow=hidden;rotatable=0;points=[[0,0.5],[1,0.5]];portConstraint=eastwest;" parent="PYAkdRfbWLDcyNQkEUJV-4" vertex="1">
                    <mxGeometry y="174" width="250" height="28" as="geometry"/>
                </mxCell>
                <mxCell id="PYAkdRfbWLDcyNQkEUJV-27" value="page_set()  : 戻り値なし" style="text;align=left;verticalAlign=top;spacingLeft=4;spacingRight=4;overflow=hidden;rotatable=0;points=[[0,0.5],[1,0.5]];portConstraint=eastwest;" parent="PYAkdRfbWLDcyNQkEUJV-4" vertex="1">
                    <mxGeometry y="202" width="250" height="28" as="geometry"/>
                </mxCell>
                <mxCell id="0" value="bg_set()  : 戻り値なし" style="text;align=left;verticalAlign=top;spacingLeft=4;spacingRight=4;overflow=hidden;rotatable=0;points=[[0,0.5],[1,0.5]];portConstraint=eastwest;" parent="PYAkdRfbWLDcyNQkEUJV-4" vertex="1">
                    <mxGeometry y="230" width="250" height="28" as="geometry"/>
                </mxCell>
                <mxCell id="gpzuzgEzm0yG7Bt-qaei-18" style="edgeStyle=orthogonalEdgeStyle;rounded=0;orthogonalLoop=1;jettySize=auto;html=1;entryX=0.25;entryY=0;entryDx=0;entryDy=0;endArrow=block;endFill=0;" parent="WIyWlLk6GJQsqaUBKTNV-1" source="gpzuzgEzm0yG7Bt-qaei-9" target="mkgSa8CzClqnbipAFmf9-16" edge="1">
                    <mxGeometry relative="1" as="geometry">
                        <Array as="points">
                            <mxPoint x="185" y="550"/>
                            <mxPoint x="445" y="550"/>
                        </Array>
                    </mxGeometry>
                </mxCell>
                <mxCell id="gpzuzgEzm0yG7Bt-qaei-21" value="継承" style="edgeLabel;html=1;align=center;verticalAlign=middle;resizable=0;points=[];" parent="gpzuzgEzm0yG7Bt-qaei-18" vertex="1" connectable="0">
                    <mxGeometry x="0.8869" relative="1" as="geometry">
                        <mxPoint x="-25" as="offset"/>
                    </mxGeometry>
                </mxCell>
                <mxCell id="gpzuzgEzm0yG7Bt-qaei-19" style="edgeStyle=orthogonalEdgeStyle;rounded=0;orthogonalLoop=1;jettySize=auto;html=1;endArrow=block;endFill=0;entryX=0.25;entryY=0;entryDx=0;entryDy=0;" parent="WIyWlLk6GJQsqaUBKTNV-1" source="gpzuzgEzm0yG7Bt-qaei-9" edge="1">
                    <mxGeometry relative="1" as="geometry">
                        <mxPoint x="772" y="583.95" as="targetPoint"/>
                        <Array as="points">
                            <mxPoint x="185" y="550"/>
                            <mxPoint x="772" y="550"/>
                        </Array>
                    </mxGeometry>
                </mxCell>
                <mxCell id="gpzuzgEzm0yG7Bt-qaei-20" value="継承" style="edgeLabel;html=1;align=center;verticalAlign=middle;resizable=0;points=[];" parent="gpzuzgEzm0yG7Bt-qaei-19" vertex="1" connectable="0">
                    <mxGeometry x="0.9314" y="5" relative="1" as="geometry">
                        <mxPoint x="-28" y="4" as="offset"/>
                    </mxGeometry>
                </mxCell>
                <mxCell id="gpzuzgEzm0yG7Bt-qaei-9" value="BasePage（抽象クラス）" style="swimlane;fontStyle=0;align=center;verticalAlign=top;childLayout=stackLayout;horizontal=1;startSize=26;horizontalStack=0;resizeParent=1;resizeLast=0;collapsible=1;marginBottom=0;rounded=0;shadow=0;strokeWidth=1;" parent="WIyWlLk6GJQsqaUBKTNV-1" vertex="1">
                    <mxGeometry x="70" y="583.95" width="230" height="138" as="geometry">
                        <mxRectangle x="130" y="380" width="160" height="26" as="alternateBounds"/>
                    </mxGeometry>
                </mxCell>
                <mxCell id="gpzuzgEzm0yG7Bt-qaei-17" value="style() : スタイルクラス" style="text;align=left;verticalAlign=top;spacingLeft=4;spacingRight=4;overflow=hidden;rotatable=0;points=[[0,0.5],[1,0.5]];portConstraint=eastwest;" parent="gpzuzgEzm0yG7Bt-qaei-9" vertex="1">
                    <mxGeometry y="26" width="230" height="28" as="geometry"/>
                </mxCell>
                <mxCell id="gpzuzgEzm0yG7Bt-qaei-10" value="" style="line;html=1;strokeWidth=1;align=left;verticalAlign=middle;spacingTop=-1;spacingLeft=3;spacingRight=3;rotatable=0;labelPosition=right;points=[];portConstraint=eastwest;" parent="gpzuzgEzm0yG7Bt-qaei-9" vertex="1">
                    <mxGeometry y="54" width="230" height="8" as="geometry"/>
                </mxCell>
                <mxCell id="gpzuzgEzm0yG7Bt-qaei-11" value="__init__()  : 戻り値なし" style="text;align=left;verticalAlign=top;spacingLeft=4;spacingRight=4;overflow=hidden;rotatable=0;points=[[0,0.5],[1,0.5]];portConstraint=eastwest;fontStyle=0" parent="gpzuzgEzm0yG7Bt-qaei-9" vertex="1">
                    <mxGeometry y="62" width="230" height="22" as="geometry"/>
                </mxCell>
                <mxCell id="gpzuzgEzm0yG7Bt-qaei-12" value="__build_ui()  : 戻り値なし(抽象メソッド)" style="text;align=left;verticalAlign=top;spacingLeft=4;spacingRight=4;overflow=hidden;rotatable=0;points=[[0,0.5],[1,0.5]];portConstraint=eastwest;" parent="gpzuzgEzm0yG7Bt-qaei-9" vertex="1">
                    <mxGeometry y="84" width="230" height="26" as="geometry"/>
                </mxCell>
                <mxCell id="gpzuzgEzm0yG7Bt-qaei-25" value="show_page() : 戻り値：なし" style="text;align=left;verticalAlign=top;spacingLeft=4;spacingRight=4;overflow=hidden;rotatable=0;points=[[0,0.5],[1,0.5]];portConstraint=eastwest;" parent="gpzuzgEzm0yG7Bt-qaei-9" vertex="1">
                    <mxGeometry y="110" width="230" height="28" as="geometry"/>
                </mxCell>
                <mxCell id="gpzuzgEzm0yG7Bt-qaei-26" value="Page2" style="swimlane;fontStyle=0;align=center;verticalAlign=top;childLayout=stackLayout;horizontal=1;startSize=26;horizontalStack=0;resizeParent=1;resizeLast=0;collapsible=1;marginBottom=0;rounded=0;shadow=0;strokeWidth=1;" parent="WIyWlLk6GJQsqaUBKTNV-1" vertex="1">
                    <mxGeometry x="670" y="583.95" width="220" height="136.05" as="geometry">
                        <mxRectangle x="130" y="380" width="160" height="26" as="alternateBounds"/>
                    </mxGeometry>
                </mxCell>
                <mxCell id="gpzuzgEzm0yG7Bt-qaei-27" value="diary_controller: DiaryControllerクラス" style="text;align=left;verticalAlign=top;spacingLeft=4;spacingRight=4;overflow=hidden;rotatable=0;points=[[0,0.5],[1,0.5]];portConstraint=eastwest;" parent="gpzuzgEzm0yG7Bt-qaei-26" vertex="1">
                    <mxGeometry y="26" width="220" height="26" as="geometry"/>
                </mxCell>
                <mxCell id="gpzuzgEzm0yG7Bt-qaei-28" value="" style="line;html=1;strokeWidth=1;align=left;verticalAlign=middle;spacingTop=-1;spacingLeft=3;spacingRight=3;rotatable=0;labelPosition=right;points=[];portConstraint=eastwest;" parent="gpzuzgEzm0yG7Bt-qaei-26" vertex="1">
                    <mxGeometry y="52" width="220" height="8" as="geometry"/>
                </mxCell>
                <mxCell id="gpzuzgEzm0yG7Bt-qaei-29" value="__init__()  : 戻り値なし" style="text;align=left;verticalAlign=top;spacingLeft=4;spacingRight=4;overflow=hidden;rotatable=0;points=[[0,0.5],[1,0.5]];portConstraint=eastwest;fontStyle=0" parent="gpzuzgEzm0yG7Bt-qaei-26" vertex="1">
                    <mxGeometry y="60" width="220" height="22" as="geometry"/>
                </mxCell>
                <mxCell id="gpzuzgEzm0yG7Bt-qaei-30" value="__build_ui()  : 戻り値なし" style="text;align=left;verticalAlign=top;spacingLeft=4;spacingRight=4;overflow=hidden;rotatable=0;points=[[0,0.5],[1,0.5]];portConstraint=eastwest;fontStyle=0" parent="gpzuzgEzm0yG7Bt-qaei-26" vertex="1">
                    <mxGeometry y="82" width="220" height="22" as="geometry"/>
                </mxCell>
                <mxCell id="gpzuzgEzm0yG7Bt-qaei-31" value="__msg_output()  : 戻り値なし" style="text;align=left;verticalAlign=top;spacingLeft=4;spacingRight=4;overflow=hidden;rotatable=0;points=[[0,0.5],[1,0.5]];portConstraint=eastwest;fontStyle=0" parent="gpzuzgEzm0yG7Bt-qaei-26" vertex="1">
                    <mxGeometry y="104" width="220" height="22" as="geometry"/>
                </mxCell>
                <mxCell id="gpzuzgEzm0yG7Bt-qaei-41" value="継承" style="edgeStyle=orthogonalEdgeStyle;rounded=0;orthogonalLoop=1;jettySize=auto;html=1;entryX=0.25;entryY=0;entryDx=0;entryDy=0;endArrow=block;endFill=0;" parent="WIyWlLk6GJQsqaUBKTNV-1" source="gpzuzgEzm0yG7Bt-qaei-33" target="zkfFHV4jXpPFQw0GAbJ--0" edge="1">
                    <mxGeometry x="0.6537" y="-20" relative="1" as="geometry">
                        <Array as="points">
                            <mxPoint x="175" y="1280"/>
                            <mxPoint x="433" y="1280"/>
                        </Array>
                        <mxPoint as="offset"/>
                    </mxGeometry>
                </mxCell>
                <mxCell id="gpzuzgEzm0yG7Bt-qaei-33" value="BaseModel" style="swimlane;fontStyle=2;align=center;verticalAlign=top;childLayout=stackLayout;horizontal=1;startSize=26;horizontalStack=0;resizeParent=1;resizeLast=0;collapsible=1;marginBottom=0;rounded=0;shadow=0;strokeWidth=1;" parent="WIyWlLk6GJQsqaUBKTNV-1" vertex="1">
                    <mxGeometry x="60" y="1310" width="230" height="190" as="geometry">
                        <mxRectangle x="230" y="140" width="160" height="26" as="alternateBounds"/>
                    </mxGeometry>
                </mxCell>
                <mxCell id="gpzuzgEzm0yG7Bt-qaei-34" value="conn : データフレーム（Pandas）" style="text;align=left;verticalAlign=top;spacingLeft=4;spacingRight=4;overflow=hidden;rotatable=0;points=[[0,0.5],[1,0.5]];portConstraint=eastwest;" parent="gpzuzgEzm0yG7Bt-qaei-33" vertex="1">
                    <mxGeometry y="26" width="230" height="26" as="geometry"/>
                </mxCell>
                <mxCell id="gpzuzgEzm0yG7Bt-qaei-35" value="cursor : 読込み状態 " style="text;align=left;verticalAlign=top;spacingLeft=4;spacingRight=4;overflow=hidden;rotatable=0;points=[[0,0.5],[1,0.5]];portConstraint=eastwest;" parent="gpzuzgEzm0yG7Bt-qaei-33" vertex="1">
                    <mxGeometry y="52" width="230" height="26" as="geometry"/>
                </mxCell>
                <mxCell id="gpzuzgEzm0yG7Bt-qaei-37" value="" style="line;html=1;strokeWidth=1;align=left;verticalAlign=middle;spacingTop=-1;spacingLeft=3;spacingRight=3;rotatable=0;labelPosition=right;points=[];portConstraint=eastwest;" parent="gpzuzgEzm0yG7Bt-qaei-33" vertex="1">
                    <mxGeometry y="78" width="230" height="8" as="geometry"/>
                </mxCell>
                <mxCell id="gpzuzgEzm0yG7Bt-qaei-38" value="__init__()  戻り値：なし" style="text;align=left;verticalAlign=top;spacingLeft=4;spacingRight=4;overflow=hidden;rotatable=0;points=[[0,0.5],[1,0.5]];portConstraint=eastwest;" parent="gpzuzgEzm0yG7Bt-qaei-33" vertex="1">
                    <mxGeometry y="86" width="230" height="26" as="geometry"/>
                </mxCell>
                <mxCell id="gpzuzgEzm0yG7Bt-qaei-39" value="connect()  戻り値：なし" style="text;align=left;verticalAlign=top;spacingLeft=4;spacingRight=4;overflow=hidden;rotatable=0;points=[[0,0.5],[1,0.5]];portConstraint=eastwest;" parent="gpzuzgEzm0yG7Bt-qaei-33" vertex="1">
                    <mxGeometry y="112" width="230" height="26" as="geometry"/>
                </mxCell>
                <mxCell id="gpzuzgEzm0yG7Bt-qaei-40" value="close()  戻り値：なし" style="text;align=left;verticalAlign=top;spacingLeft=4;spacingRight=4;overflow=hidden;rotatable=0;points=[[0,0.5],[1,0.5]];portConstraint=eastwest;" parent="gpzuzgEzm0yG7Bt-qaei-33" vertex="1">
                    <mxGeometry y="138" width="230" height="26" as="geometry"/>
                </mxCell>
                <mxCell id="gpzuzgEzm0yG7Bt-qaei-52" value="使用" style="rounded=0;orthogonalLoop=1;jettySize=auto;html=1;entryX=0.75;entryY=0;entryDx=0;entryDy=0;" parent="WIyWlLk6GJQsqaUBKTNV-1" source="gpzuzgEzm0yG7Bt-qaei-42" target="mkgSa8CzClqnbipAFmf9-16" edge="1">
                    <mxGeometry relative="1" as="geometry"/>
                </mxCell>
                <mxCell id="gpzuzgEzm0yG7Bt-qaei-53" value="使用" style="rounded=0;orthogonalLoop=1;jettySize=auto;html=1;entryX=0.75;entryY=0;entryDx=0;entryDy=0;" parent="WIyWlLk6GJQsqaUBKTNV-1" source="gpzuzgEzm0yG7Bt-qaei-42" target="gpzuzgEzm0yG7Bt-qaei-26" edge="1">
                    <mxGeometry relative="1" as="geometry"/>
                </mxCell>
                <mxCell id="gpzuzgEzm0yG7Bt-qaei-42" value="CommonStyle" style="swimlane;fontStyle=0;align=center;verticalAlign=top;childLayout=stackLayout;horizontal=1;startSize=26;horizontalStack=0;resizeParent=1;resizeLast=0;collapsible=1;marginBottom=0;rounded=0;shadow=0;strokeWidth=1;" parent="WIyWlLk6GJQsqaUBKTNV-1" vertex="1">
                    <mxGeometry x="850" y="237" width="360" height="200" as="geometry">
                        <mxRectangle x="130" y="380" width="160" height="26" as="alternateBounds"/>
                    </mxGeometry>
                </mxCell>
                <mxCell id="gpzuzgEzm0yG7Bt-qaei-43" value="HEADER_TITLE: 文字フォント(タプル型) " style="text;align=left;verticalAlign=top;spacingLeft=4;spacingRight=4;overflow=hidden;rotatable=0;points=[[0,0.5],[1,0.5]];portConstraint=eastwest;" parent="gpzuzgEzm0yG7Bt-qaei-42" vertex="1">
                    <mxGeometry y="26" width="360" height="26" as="geometry"/>
                </mxCell>
                <mxCell id="gpzuzgEzm0yG7Bt-qaei-46" value="HEADER_TITLE: 文字フォント(タプル型)" style="text;align=left;verticalAlign=top;spacingLeft=4;spacingRight=4;overflow=hidden;rotatable=0;points=[[0,0.5],[1,0.5]];portConstraint=eastwest;" parent="gpzuzgEzm0yG7Bt-qaei-42" vertex="1">
                    <mxGeometry y="52" width="360" height="26" as="geometry"/>
                </mxCell>
                <mxCell id="gpzuzgEzm0yG7Bt-qaei-47" value="DEFAULT: 文字フォント(タプル型) " style="text;align=left;verticalAlign=top;spacingLeft=4;spacingRight=4;overflow=hidden;rotatable=0;points=[[0,0.5],[1,0.5]];portConstraint=eastwest;" parent="gpzuzgEzm0yG7Bt-qaei-42" vertex="1">
                    <mxGeometry y="78" width="360" height="26" as="geometry"/>
                </mxCell>
                <mxCell id="gpzuzgEzm0yG7Bt-qaei-49" value="transparent_frame: フレーム背景色(ウィンドウと同じ色)(辞書型)" style="text;align=left;verticalAlign=top;spacingLeft=4;spacingRight=4;overflow=hidden;rotatable=0;points=[[0,0.5],[1,0.5]];portConstraint=eastwest;" parent="gpzuzgEzm0yG7Bt-qaei-42" vertex="1">
                    <mxGeometry y="104" width="360" height="26" as="geometry"/>
                </mxCell>
                <mxCell id="gpzuzgEzm0yG7Bt-qaei-44" value="" style="line;html=1;strokeWidth=1;align=left;verticalAlign=middle;spacingTop=-1;spacingLeft=3;spacingRight=3;rotatable=0;labelPosition=right;points=[];portConstraint=eastwest;" parent="gpzuzgEzm0yG7Bt-qaei-42" vertex="1">
                    <mxGeometry y="130" width="360" height="8" as="geometry"/>
                </mxCell>
                <mxCell id="gpzuzgEzm0yG7Bt-qaei-45" value="__init__()  : 戻り値なし" style="text;align=left;verticalAlign=top;spacingLeft=4;spacingRight=4;overflow=hidden;rotatable=0;points=[[0,0.5],[1,0.5]];portConstraint=eastwest;fontStyle=0" parent="gpzuzgEzm0yG7Bt-qaei-42" vertex="1">
                    <mxGeometry y="138" width="360" height="22" as="geometry"/>
                </mxCell>
                <mxCell id="gpzuzgEzm0yG7Bt-qaei-50" value="change_transparent_frame()  : 戻り値なし" style="text;align=left;verticalAlign=top;spacingLeft=4;spacingRight=4;overflow=hidden;rotatable=0;points=[[0,0.5],[1,0.5]];portConstraint=eastwest;fontStyle=0" parent="gpzuzgEzm0yG7Bt-qaei-42" vertex="1">
                    <mxGeometry y="160" width="360" height="22" as="geometry"/>
                </mxCell>
                <mxCell id="gpzuzgEzm0yG7Bt-qaei-51" value="使用" style="edgeStyle=orthogonalEdgeStyle;rounded=0;orthogonalLoop=1;jettySize=auto;html=1;entryX=1.01;entryY=-0.402;entryDx=0;entryDy=0;entryPerimeter=0;" parent="WIyWlLk6GJQsqaUBKTNV-1" source="gpzuzgEzm0yG7Bt-qaei-42" target="mkgSa8CzClqnbipAFmf9-25" edge="1">
                    <mxGeometry x="0.2187" y="-14" relative="1" as="geometry">
                        <mxPoint as="offset"/>
                    </mxGeometry>
                </mxCell>
            </root>
        </mxGraphModel>
    </diagram>
</mxfile>